<?xml version="1.0" encoding="UTF-8" standalone="no"?>
<!-- Created with Inkscape (http://www.inkscape.org/) -->

<svg
   width="210mm"
   height="297mm"
   viewBox="0 0 210 297"
   version="1.1"
   id="svg5"
   inkscape:version="1.2.2 (732a01da63, 2022-12-09)"
   sodipodi:docname="matin-svg.svg"
   xmlns:inkscape="http://www.inkscape.org/namespaces/inkscape"
   xmlns:sodipodi="http://sodipodi.sourceforge.net/DTD/sodipodi-0.dtd"
   xmlns="http://www.w3.org/2000/svg"
   xmlns:svg="http://www.w3.org/2000/svg">
  <sodipodi:namedview
     id="namedview7"
     pagecolor="#ffffff"
     bordercolor="#000000"
     borderopacity="0.25"
     inkscape:showpageshadow="2"
     inkscape:pageopacity="0.0"
     inkscape:pagecheckerboard="0"
     inkscape:deskcolor="#d1d1d1"
     inkscape:document-units="mm"
     showgrid="false"
     inkscape:zoom="1.0066639"
     inkscape:cx="314.90153"
     inkscape:cy="540.39884"
     inkscape:window-width="1366"
     inkscape:window-height="745"
     inkscape:window-x="-8"
     inkscape:window-y="-8"
     inkscape:window-maximized="1"
     inkscape:current-layer="layer1" />
  <defs
     id="defs2" />
  <g
     inkscape:label="Camada 1"
     inkscape:groupmode="layer"
     id="layer1">
    <path
       style="fill:#008000;stroke:#000000;stroke-width:1.35354;stroke-dasharray:none;stroke-opacity:1"
       d="m 60.947689,130.29435 9.997903,-0.0204 1.078712,-4.3013 -3.062491,0.96591 -3.006279,-3.01141 -3.024253,2.99935 -3.029965,-0.94059 z"
       id="path1644"
       sodipodi:nodetypes="cccccccc" />
    <path
       id="rect1487-0-4"
       style="fill:#ff0000;stroke-width:1.32292;stroke-dasharray:none"
       d="m 10.685703,118.30472 v 0.0331 h 3.000333 v 1.96732 h -3.000333 v 0.0326 h 3.000333 v 1.91822 h -3.000333 v 0.0331 h 3.000333 v 4.01578 h -3.000333 v 0.0331 h 3.000333 v 2.84169 h 0.03256 v -2.84169 h 1.967322 v 2.84169 h 0.03256 v -2.84169 H 17.6858 v 2.84169 h 0.03307 v -2.84169 h 2.966744 v 2.84169 h 0.03307 v -2.84169 h 2.967261 v 2.84169 h 0.03256 v -2.84169 h 1.967322 v 2.84169 h 0.03307 v -2.84169 h 1.966805 v 2.84169 h 0.03307 v -2.84169 h 1.792656 v -0.0331 h -1.792656 v -4.01578 h 1.792656 v -0.0331 h -1.792657 v -1.91822 h 1.792656 v -0.0326 h -1.792656 v -1.96732 h 1.792656 v -0.0331 H 15.71847 15.68591 Z m 3.032889,0.0331 h 1.967322 v 1.96732 h -1.967322 z m 1.999878,0 h 1.967322 v 1.96732 H 15.71847 Z m 2.000395,0 h 2.966744 v 1.96732 h -2.966744 z m 2.999817,0 h 2.967261 v 1.96732 h -2.967261 z m 2.999817,0 h 1.967322 v 1.96732 h -1.967322 z m 2.000395,0 h 1.966805 v 1.96732 h -1.966805 z m -12.000302,1.99988 h 1.967322 v 1.91822 h -1.967322 z m 1.999878,0 h 1.967322 v 1.91822 H 15.71847 Z m 2.000395,0 h 2.966744 v 1.91822 h -2.966744 z m 2.999817,0 h 2.967261 v 1.91822 h -2.967261 z m 2.999817,0 h 1.967322 v 1.91822 h -1.967322 z m 2.000395,0 h 1.966805 v 1.91822 h -1.966805 z m -12.000302,1.9513 h 1.967322 v 4.01577 h -1.967322 z m 1.999878,0 h 1.967322 v 4.01577 H 15.71847 Z m 2.000395,0 h 2.966744 v 4.01577 h -2.966744 z m 2.999817,0 h 2.967261 v 4.01577 h -2.967261 z m 2.999817,0 h 1.967322 v 4.01577 h -1.967322 z m 2.000395,0 h 1.966805 v 4.01577 h -1.966805 z" />
    <text
       xml:space="preserve"
       style="font-style:normal;font-variant:normal;font-weight:bold;font-stretch:normal;font-size:25.4px;font-family:Arial;-inkscape-font-specification:'Arial Bold';opacity:1;fill:#000000;fill-opacity:1;stroke:#ffffff;stroke-width:0.845597;stroke-dasharray:none;stroke-opacity:1"
       x="55.070545"
       y="203.47374"
       id="text26667"><tspan
         sodipodi:role="line"
         id="tspan26665"
         style="font-style:normal;font-variant:normal;font-weight:bold;font-stretch:normal;font-size:25.4px;font-family:Arial;-inkscape-font-specification:'Arial Bold';fill:#000000;stroke-width:0.845597"
         x="55.070545"
         y="203.47374">Mat-in</tspan></text>
    <rect
       style="fill:#ff0000;stroke-width:1.25913;stroke-dasharray:none"
       id="rect1689"
       width="30"
       height="0.13141592"
       x="5.8376493"
       y="138.46281" />
    <rect
       style="fill:#ff0000;stroke-width:1.32292;stroke-dasharray:none"
       id="rect1691"
       width="0.13141592"
       height="46.258404"
       x="20.837656"
       y="134.46281" />
    <rect
       style="fill:#ff0000;stroke-width:1.25913;stroke-dasharray:none"
       id="rect1689-5"
       width="30"
       height="0.13141592"
       x="5.8376493"
       y="174.46281" />
    <rect
       style="fill:#ff0000;stroke-width:1.32292;stroke-dasharray:none"
       id="rect1691-6"
       width="0.13141592"
       height="46.258404"
       x="29.837656"
       y="134.46281" />
    <rect
       style="fill:#ff0000;stroke-width:1.32292;stroke-dasharray:none"
       id="rect1691-5"
       width="0.13141592"
       height="46.258404"
       x="11.837649"
       y="134.46281" />
    <rect
       style="fill:#ff0000;stroke-width:1.25913;stroke-dasharray:none"
       id="rect1689-0"
       width="30"
       height="0.13141592"
       x="5.8376493"
       y="134.46281" />
    <path
       style="fill:#ff6600;stroke:#000000;stroke-width:1.32292;stroke-dasharray:none;stroke-opacity:1"
       d="m 58.524517,135.41506 c 3.037707,-3.62425 12.375506,-3.62553 15.437638,-0.0929 2.916518,2.27314 -3.739518,36.04281 -7.935191,36.0493 -4.195673,0.006 -10.867213,-32.97382 -7.502447,-35.9564 z"
       id="path3112"
       sodipodi:nodetypes="cczc" />
    <rect
       style="fill:#000000;stroke:none;stroke-width:1.18184;stroke-dasharray:none;stroke-opacity:1"
       id="rect14611-6-9-1"
       width="4.6858406"
       height="1.3171062"
       x="59.816811"
       y="156.6463"
       ry="0.65855312" />
    <rect
       style="fill:#000000;stroke:none;stroke-width:1.18184;stroke-dasharray:none;stroke-opacity:1"
       id="rect14611-6-9-9"
       width="4.6858406"
       height="1.3171062"
       x="69.147339"
       y="149.28702"
       ry="0.65855312" />
    <rect
       style="fill:#000000;stroke:none;stroke-width:1.18184;stroke-dasharray:none;stroke-opacity:1"
       id="rect14611-6-9"
       width="4.6858406"
       height="1.3171062"
       x="57.462738"
       y="141.97461"
       ry="0.65855312" />
    <path
       style="fill:none;stroke:#008000;stroke-width:1.35354;stroke-dasharray:none;stroke-opacity:1"
       d="m 88.372617,130.76641 9.997903,-0.0204 1.078712,-4.3013 -3.062491,0.96591 -3.006279,-3.01141 -3.024253,2.99935 -3.029965,-0.94059 z"
       id="path1644-6"
       sodipodi:nodetypes="cccccccc" />
    <path
       style="fill:none;stroke:#ff6600;stroke-width:1.32292;stroke-dasharray:none;stroke-opacity:1"
       d="m 85.949445,135.88712 c 3.037707,-3.62425 12.375506,-3.62553 15.437635,-0.0929 2.91652,2.27314 -3.739515,36.04281 -7.935188,36.0493 -4.195673,0.006 -10.867213,-32.97382 -7.502447,-35.9564 z"
       id="path3112-6"
       sodipodi:nodetypes="cczc" />
    <rect
       style="fill:#ff6600;fill-opacity:1;stroke:none;stroke-width:1.18184;stroke-dasharray:none;stroke-opacity:1"
       id="rect14611-6-9-1-6"
       width="4.6858406"
       height="1.3171062"
       x="87.241737"
       y="157.11836"
       ry="0.65855312" />
    <rect
       style="fill:#ff6600;fill-opacity:1;stroke:none;stroke-width:1.18184;stroke-dasharray:none;stroke-opacity:1"
       id="rect14611-6-9-9-4"
       width="4.6858406"
       height="1.3171062"
       x="96.572273"
       y="149.75908"
       ry="0.65855312" />
    <rect
       style="fill:#ff6600;fill-opacity:1;stroke:none;stroke-width:1.18184;stroke-dasharray:none;stroke-opacity:1"
       id="rect14611-6-9-4"
       width="4.6858406"
       height="1.3171062"
       x="84.887665"
       y="142.44667"
       ry="0.65855312" />
    <rect
       style="fill:#ffffff;fill-opacity:1;stroke:none;stroke-width:1.33734;stroke-dasharray:none;stroke-opacity:1"
       id="rect14611-6-9-1-5"
       width="6"
       height="1.3171062"
       x="120.69418"
       y="127.98693"
       ry="0.65855312" />
    <path
       style="fill:#008000;stroke:#008000;stroke-width:1.35354;stroke-dasharray:none;stroke-opacity:1"
       d="m 113.77548,130.17127 9.9979,-0.0204 1.07872,-4.3013 -3.06249,0.96591 -3.00628,-3.01141 -3.02426,2.99935 -3.02996,-0.94059 z"
       id="path1644-9-8"
       sodipodi:nodetypes="cccccccc" />
    <rect
       style="fill:#ffffff;fill-opacity:1;stroke:none;stroke-width:1.323;stroke-dasharray:none;stroke-opacity:1"
       id="rect27167-58-0"
       width="5.2566218"
       height="0.59710521"
       x="3.1089411"
       y="171.80983"
       ry="0"
       rx="0"
       transform="matrix(-0.71018685,0.70401324,0.70401324,0.71018685,0,0)" />
    <rect
       style="fill:#ffffff;fill-opacity:1;stroke:none;stroke-width:1.323;stroke-dasharray:none;stroke-opacity:1"
       id="rect27167-8-4"
       width="3.9424777"
       height="0.59137166"
       x="-157.44208"
       y="70.38456"
       ry="0"
       rx="0"
       transform="matrix(-0.91460769,-0.40434239,-0.40434239,0.91460769,0,0)" />
    <rect
       style="fill:#ffffff;fill-opacity:1;stroke:none;stroke-width:1.323;stroke-dasharray:none;stroke-opacity:1"
       id="rect27167-58"
       width="5.2058535"
       height="0.62962043"
       x="171.77193"
       y="4.6179013"
       ry="0"
       rx="0"
       transform="rotate(44.74988)" />
    <path
       style="fill:#ff6600;stroke:#ff6600;stroke-width:1.32292;stroke-dasharray:none;stroke-opacity:1"
       d="m 111.35231,135.29198 c 3.03771,-3.62425 12.37551,-3.62553 15.43764,-0.0929 2.91652,2.27314 -3.73952,36.04281 -7.93519,36.0493 -4.19568,0.006 -10.86722,-32.97382 -7.50245,-35.9564 z"
       id="path3112-63-7"
       sodipodi:nodetypes="cczc" />
    <rect
       style="fill:#ffffff;fill-opacity:1;stroke:none;stroke-width:1.33734;stroke-dasharray:none;stroke-opacity:1"
       id="rect14611-6-9-1-5-0"
       width="6"
       height="1.3171062"
       x="111.33045"
       y="156.52322"
       ry="0.65855312" />
    <rect
       style="fill:#ffffff;fill-opacity:1;stroke:none;stroke-width:1.30772;stroke-dasharray:none;stroke-opacity:1"
       id="rect14611-6-9-9-5-2"
       width="5.7371678"
       height="1.3171062"
       x="121.97514"
       y="149.16394"
       ry="0.65855312" />
    <rect
       style="fill:#ffffff;fill-opacity:1;stroke:none;stroke-width:1.33734;stroke-dasharray:none;stroke-opacity:1"
       id="rect14611-6-9-16-9"
       width="6"
       height="1.3171062"
       x="108.97638"
       y="141.85153"
       ry="0.65855312" />
    <rect
       style="fill:#ffffff;fill-opacity:1;stroke:none;stroke-width:1.323;stroke-dasharray:none;stroke-opacity:1"
       id="rect27167-8"
       width="3.9424777"
       height="0.59137166"
       x="82.716515"
       y="155.94598"
       ry="0"
       rx="0"
       transform="rotate(-15.69698)" />
    <text
       xml:space="preserve"
       style="font-style:normal;font-variant:normal;font-weight:bold;font-stretch:normal;font-size:25.4px;font-family:Arial;-inkscape-font-specification:'Arial Bold';fill:#ffffff;fill-opacity:1;stroke:#ffffff;stroke-width:0.845597;stroke-dasharray:none;stroke-opacity:1"
       x="55.612206"
       y="230.24651"
       id="text26667-1"><tspan
         sodipodi:role="line"
         id="tspan26665-1"
         style="font-style:normal;font-variant:normal;font-weight:bold;font-stretch:normal;font-size:25.4px;font-family:Arial;-inkscape-font-specification:'Arial Bold';fill:#ffffff;stroke-width:0.845597"
         x="55.612206"
         y="230.24651">Mat-in</tspan></text>
  </g>
</svg>
