<?xml version="1.0" encoding="UTF-8" standalone="no"?>
<!-- Created with Inkscape (http://www.inkscape.org/) -->

<svg
   version="1.1"
   id="svg2"
   width="506.72165"
   height="506.72165"
   viewBox="0 0 506.72165 506.72165"
   xmlns="http://www.w3.org/2000/svg"
   xmlns:svg="http://www.w3.org/2000/svg">
  <defs
     id="defs6" />
  <g
     id="g8">
    <path
       style="fill:#ffffff;stroke-width:0.989691"
       d="m 39.92344,504.9364 c -11.49665,-3.9889 -17.24791,-11.63237 -17.90169,-23.79147 -0.38684,-7.19454 -0.10706,-8.40864 6.1356,-26.62572 7.67694,-22.40254 12.30033,-32.52479 20.56035,-45.01396 7.23125,-10.93367 24.67143,-28.66505 35.4128,-36.00409 16.39114,-11.19925 37.429,-19.69209 56.55813,-22.83211 l 9.6612,-1.58587 5.5932,4.85967 c 14.32152,12.44331 24.98076,18.85034 38.53799,23.16431 10.81129,3.44021 28.97135,3.89449 40.58993,1.01537 15.30727,-3.79319 31.14066,-12.78433 43.29294,-24.58433 l 4.70761,-4.57113 10.20858,1.72717 c 44.11968,7.46453 81.41278,35.04199 101.17778,74.81882 5.26881,10.60342 18.24868,48.72967 18.24943,53.60468 0.002,9.91296 -6.58379,20.39954 -15.59824,24.83901 l -4.68989,2.30969 -173.69072,0.22221 C 53.9564,506.69944 44.77511,506.61974 39.92344,504.9364 Z m 385.95674,-73.18131 c -0.64798,-0.41199 -2.79097,-4.52476 -4.76219,-9.13948 -6.22997,-14.58459 -13.70358,-26.95442 -24.08369,-39.86172 l -5.41153,-6.72905 2.37758,-1.63748 c 5.60487,-3.86018 14.40187,-13.14006 18.8013,-19.83332 12.93327,-19.67654 15.20584,-43.69195 6.20056,-65.52471 -8.05161,-19.52071 -23.82003,-34.15106 -44.39748,-41.19316 -6.96949,-2.38514 -9.45809,-2.71787 -20.78351,-2.77883 -9.77184,-0.0525 -14.26011,0.36136 -18.66308,1.72128 -3.1884,0.98479 -5.96302,1.6246 -6.16583,1.42179 -0.20281,-0.2028 0.14777,-6.71703 0.77905,-14.47606 1.25765,-15.45757 0.36439,-30.22835 -2.75463,-45.55007 -1.62989,-8.00654 -1.62514,-8.36894 0.1261,-9.64948 2.41094,-1.76292 47.54116,-1.92837 51.36021,-0.18829 5.03316,2.29326 5.95787,5.14776 6.49344,20.04471 l 0.49485,13.76425 4.96002,1.68293 c 2.72801,0.92562 6.89814,2.67169 9.26696,3.88018 l 4.30692,2.19723 10.13597,-9.97432 c 15.13337,-14.89204 15.44117,-14.81473 39.78545,9.99284 14.60432,14.88225 16.46196,17.89439 14.64124,23.74061 -0.39617,1.27207 -4.88348,6.56152 -9.97181,11.75434 l -9.25151,9.44149 3.32363,7.87809 c 1.828,4.33296 3.58688,8.65748 3.9086,9.61006 0.5156,1.52654 2.05972,1.73196 13.01896,1.73196 22.18295,0 22.27359,0.1319 22.25273,32.38058 -0.0157,24.26686 -0.26768,25.67636 -5.25224,29.37968 -2.44412,1.81589 -4.45922,2.11798 -16.14865,2.42091 -12.57425,0.32586 -13.40711,0.47069 -14.22785,2.47423 -0.47947,1.17046 -2.19817,5.23758 -3.81932,9.03805 l -2.94756,6.90996 9.26077,9.54366 c 9.58326,9.87602 11.49561,13.5308 9.86824,18.85967 -0.38847,1.27207 -7.89056,9.60022 -16.67132,18.50702 -17.08202,17.3272 -21.98504,20.74524 -26.05038,18.16045 z M 372.53417,358.5551 c -17.87149,-14.33967 -38.3894,-24.54962 -61.32776,-30.5174 l -10.34498,-2.6914 2.59428,-4.42681 c 6.00466,-10.24616 11.68477,-23.12264 16.12984,-36.56537 5.30045,-16.02954 5.49781,-16.26883 16.42124,-19.90957 13.81681,-4.6051 27.1354,-3.67303 40.71139,2.84908 21.19627,10.183 33.16068,32.38912 30.02544,55.72764 -1.95316,14.53921 -11.0774,29.66503 -22.43109,37.1854 -2.53213,1.67721 -4.89987,3.04947 -5.26168,3.04947 -0.3618,0 -3.29431,-2.11547 -6.51668,-4.70104 z m -161.8325,-4.34513 c -21.88765,-2.20956 -44.68681,-21.28303 -60.75894,-50.83012 -11.24195,-20.66727 -18.48795,-46.27274 -20.16448,-71.25599 -2.4786,-36.93559 7.13367,-67.10873 27.86905,-87.48163 7.839,-7.70195 12.65868,-11.06563 22.97805,-16.03648 28.29709,-13.63072 62.74016,-9.97816 88.12626,9.34548 32.44536,24.6971 43.88366,72.58246 30.24103,126.6013 -11.07633,43.8574 -37.67165,78.81967 -66.90338,87.95131 -5.23058,1.63397 -14.65504,2.38578 -21.38759,1.70613 z M 67.8006,234.70956 c -4.58032,-2.86746 -29.92737,-28.99599 -31.08662,-32.04505 -1.91076,-5.02565 -0.25059,-8.39952 8.81609,-17.9164 l 8.6108,-9.03837 -2.5722,-5.5015 c -1.4147,-3.02583 -3.09021,-6.92274 -3.72334,-8.65979 l -1.15114,-3.15829 H 34.7785 c -19.97657,0 -19.92635,0.0735 -19.92635,-29.15031 0,-29.6553 0.40058,-30.231132 21.03081,-30.231132 h 11.19748 l 3.54078,-8.821086 3.54078,-8.821087 -7.88441,-7.756233 c -9.1157,-8.967518 -11.24887,-12.815319 -9.70241,-17.501145 1.42915,-4.330363 30.2421,-33.044112 34.20814,-34.090365 5.24426,-1.383449 7.51017,-0.194061 16.85742,8.848548 l 9.18102,8.881805 4.78839,-2.400056 c 2.63362,-1.320031 6.4585,-2.940755 8.49973,-3.601609 l 3.71134,-1.201555 V 21.209456 c 0,-20.97309755 0.65551,-21.40622855 31.74433,-20.97522455 l 21.6581,0.30026 2.74208,2.74131605 c 2.68149,2.680731 2.74918,3.032067 3.06275,15.8970275 l 0.32065,13.155711 8.67453,3.428948 8.67454,3.428948 8.3244,-7.804953 c 9.17436,-8.601877 12.77949,-10.656648 17.23187,-9.821442 3.64498,0.68375 31.1936,27.382679 33.69654,32.657236 2.71689,5.725431 1.40757,8.646409 -8.20745,18.310062 -9.63491,9.683633 -9.13547,7.461995 -4.34622,19.333296 l 2.10715,5.223057 -6.67669,-0.769448 c -3.67218,-0.423197 -12.29776,-0.702128 -19.16797,-0.619846 l -12.49129,0.149604 -2.17379,-3.867736 c -5.4214,-9.646071 -21.10843,-21.702783 -34.6993,-26.669116 -5.60144,-2.046861 -8.22402,-2.35534 -20.28866,-2.386436 -10.91519,-0.02814 -15.01086,0.351979 -19.29897,1.791114 -23.83673,7.999856 -40.75863,25.897642 -46.08884,48.746816 -2.00295,8.58608 -1.99016,23.74444 0.0266,31.57068 3.53461,13.71617 14.50407,30.14143 24.97647,37.3988 l 3.85192,2.66938 -1.73945,10.15148 c -0.95671,5.58331 -1.75539,13.60302 -1.77484,17.82158 -0.0195,4.21855 -0.3378,7.6701 -0.7074,7.6701 -0.3696,0 -2.14551,-0.53283 -3.94647,-1.18406 l -3.27448,-1.18407 -9.28104,9.10159 c -10.23252,10.03468 -12.86986,11.04167 -18.94972,7.23543 z m 39.65377,-71.85058 c -18.48286,-19.01747 -17.81963,-50.32395 1.47184,-69.475887 19.25863,-19.119345 50.38172,-18.864773 69.61311,0.569398 l 5.67519,5.735036 -6.24819,2.262673 c -26.49455,9.59455 -47.24049,28.57863 -60.29287,55.17249 -2.74658,5.59608 -5.19891,10.17468 -5.44962,10.17468 -0.25071,0 -2.39696,-1.99728 -4.76946,-4.43839 z m 158.18887,-56.88595 c -3.3185,-1.51005 -8.32881,-3.50788 -11.13402,-4.43962 -2.8052,-0.93174 -5.10037,-1.944604 -5.10037,-2.250805 0,-0.993412 15.26052,0.475378 17.99496,1.731985 2.3363,1.07362 5.67785,6.34001 4.65372,7.3344 -0.20935,0.20327 -3.09577,-0.86591 -6.41429,-2.37596 z"
       id="path293" />
  </g>
</svg>
