<?xml version="1.0" encoding="UTF-8" standalone="no"?>
<!-- Created with Inkscape (http://www.inkscape.org/) -->

<svg
   version="1.1"
   id="svg2"
   width="512"
   height="512"
   viewBox="0 0 512 512"
   xmlns="http://www.w3.org/2000/svg"
   xmlns:svg="http://www.w3.org/2000/svg">
  <defs
     id="defs6" />
  <g
     id="g8">
    <path
       style="fill:#000000;stroke-width:1.50224"
       d="M 235.36294,510.91376 C 123.67026,501.63512 30.858046,420.61372 6.4719563,311.10096 c -2.93967,-13.20139 -6.79478,-43.36071 -6.9458,-54.33822 -0.009,-0.61967 14.4174797,-1.12668 32.0577997,-1.12668 H 63.65724 l 0.933765,13.15492 c 2.387921,33.64107 13.657649,66.08031 33.006297,95.00663 4.144978,6.19676 14.698598,18.42911 23.452488,27.18301 22.59782,22.59781 43.53062,35.94811 72.25033,46.07902 22.42444,7.91024 35.6582,10.00975 63.09424,10.00975 18.3842,0 28.08544,-0.71107 37.55609,-2.75273 76.33856,-16.45687 133.02147,-72.28125 150.39795,-148.12002 4.18612,-18.27012 5.23531,-49.39299 2.30793,-68.46234 C 434.34353,147.52683 374.70092,84.451298 294.70158,67.033292 278.17189,63.434337 246.32692,62.6363 228.4926,65.374079 201.28846,69.550241 167.12256,82.854142 148.57751,96.492323 l -6.37073,4.685097 17.0488,11.894 c 9.45317,6.59497 17.82301,13.59322 18.78656,15.70801 2.78618,6.115 2.0507,12.0837 -2.09629,17.01211 -3.39016,4.02898 -10.30387,6.68158 -59.71419,22.91068 -30.734064,10.09479 -58.484337,18.39 -61.667276,18.43381 -4.625033,0.0637 -6.619022,-0.85139 -9.929817,-4.5568 -5.146657,-5.7601 -5.612172,-11.1561 -7.005218,-81.19985 L 36.637913,51.528649 41.243507,46.92304 c 7.593197,-7.593196 13.492823,-6.606433 30.84434,5.158991 7.92037,5.370521 14.787472,9.764584 15.260198,9.764584 0.472726,0 5.070043,-3.295848 10.216282,-7.324099 117.724973,-92.150233 289.322303,-65.1698 371.430143,58.400384 64.90078,97.67397 56.49341,223.68363 -20.85845,312.62686 -34.69016,39.88859 -87.27745,70.20941 -140.35683,80.92705 -13.7181,2.76992 -47.03632,6.27371 -55.14044,5.79864 -1.65247,-0.0969 -9.42658,-0.70963 -17.27581,-1.36169 z"
       id="path293" />
  </g>
</svg>
