<?xml version="1.0" encoding="UTF-8" standalone="no"?>
<!-- Created with Inkscape (http://www.inkscape.org/) -->

<svg
   version="1.1"
   id="svg1049"
   width="682.66669"
   height="682.66669"
   viewBox="0 0 682.66669 682.66669"
   sodipodi:docname="cart-add.png"
   inkscape:export-filename="cart-add-verde.png"
   inkscape:export-xdpi="96"
   inkscape:export-ydpi="96"
   xmlns:inkscape="http://www.inkscape.org/namespaces/inkscape"
   xmlns:sodipodi="http://sodipodi.sourceforge.net/DTD/sodipodi-0.dtd"
   xmlns="http://www.w3.org/2000/svg"
   xmlns:svg="http://www.w3.org/2000/svg">
  <defs
     id="defs1053" />
  <sodipodi:namedview
     id="namedview1051"
     pagecolor="#ffffff"
     bordercolor="#000000"
     borderopacity="0.25"
     inkscape:showpageshadow="2"
     inkscape:pageopacity="0.0"
     inkscape:pagecheckerboard="0"
     inkscape:deskcolor="#d1d1d1"
     showgrid="false" />
  <g
     inkscape:groupmode="layer"
     inkscape:label="Image"
     id="g1055">
    <path
       style="fill:#000000;fill-opacity:1;stroke-width:1.33333"
       d="m 271.36261,680.86227 c -24.1802,-5.98063 -42.92495,-26.27254 -47.39976,-51.31207 -4.12568,-23.08584 7.12947,-48.70395 27.05615,-61.58318 19.85381,-12.83214 45.00077,-13.99092 65.18763,-3.00385 7.30336,3.97499 18.77485,15.07411 23.38718,22.62803 8.32002,13.62625 10.82295,35.23821 5.9094,51.02548 -9.62501,30.92524 -43.00653,49.94615 -74.1406,42.24559 z m 257.13053,-0.0173 c -31.5376,-7.64986 -52.39027,-38.46654 -47.4828,-70.17144 6.46666,-41.77827 50.95424,-65.12525 89.53658,-46.98861 9.83921,4.62518 23.91032,18.69629 28.5355,28.5355 11.73974,24.9741 6.94022,52.73762 -12.47276,72.15059 -15.24542,15.24543 -37.34978,21.51122 -58.11652,16.47396 z M 231.36261,508.24513 C 218.95657,504.67397 206.99376,497.56959 197.31729,488.02659 184.7815,475.6637 177.52658,462.2689 174.63317,446.14475 173.96796,442.43767 165.9059,356.30462 156.7175,254.73795 L 140.01131,70.07127 135.68695,61.45479 c -4.76934,-9.503162 -13.42263,-17.22564 -22.27318,-19.87733 -3.08473,-0.924207 -16.525416,-1.506191 -34.784886,-1.506191 -27.03303,0 -30.26207,-0.244173 -35.26652,-2.666786 -6.33849,-3.068411 -11.33308,-10.707318 -11.33308,-17.333214 0,-6.135755 4.81408,-13.8837901 10.67205,-17.1761531 4.72292,-2.65442903 6.89333,-2.82245903 36.17615,-2.80069603 21.868996,0.01625 33.836556,0.592077 40.161486,1.93239003 13.3724,2.833737 26.72108,10.4001681 37.67784,21.3569271 14.58553,14.585532 21.40144,29.826622 23.99667,53.65907 l 0.90436,8.304869 206.20573,0.361798 206.20572,0.361797 8.76284,2.980323 c 18.36387,6.245721 32.36858,18.544596 40.59694,35.652066 8.54752,17.77103 8.58001,15.61831 -1.98411,131.44631 -5.17955,56.79006 -10.29204,106.55011 -11.36111,110.5779 -5.59211,21.06885 -22.13093,40.86284 -42.11743,50.40697 -6.17676,2.94958 -14.41,6.01692 -18.29609,6.81632 -4.88956,1.00582 -61.01479,1.45346 -182.237,1.45346 H 212.22196 l 0.71566,7.66666 c 1.46432,15.68657 10.21766,28.23171 24.30968,34.84025 l 7.44865,3.49309 196.72583,0.66667 c 187.67968,0.63601 196.89683,0.77874 200.44505,3.10394 3.8685,2.53508 8.77057,11.60604 8.77057,16.22939 0,5.06256 -5.07277,13.91628 -9.53059,16.63413 -4.37286,2.66607 -6.12186,2.68846 -203.07752,2.59923 -184.06573,-0.0833 -199.25464,-0.25925 -206.66668,-2.39285 z M 404.40545,338.21489 c 2.35978,-1.021 19.39487,-17.071 37.85577,-35.66666 29.1397,-29.35244 33.68926,-34.48648 34.50584,-38.9389 2.70524,-14.75025 -10.329,-27.14396 -24.47008,-23.26756 -3.57175,0.97909 -9.05712,5.41528 -19.8641,16.06466 l -14.92973,14.71204 -0.4036,-42.52361 c -0.37931,-39.96554 -0.56684,-42.80148 -3.11743,-47.14308 -7.40936,-12.61213 -26.38701,-12.92232 -34.04492,-0.55646 -2.4042,3.88226 -2.57457,6.99248 -2.57457,47 0,23.56345 -0.41956,42.84263 -0.93235,42.84263 -0.51279,0 -7.91839,-6.9 -16.45689,-15.33334 -15.97551,-15.77875 -16.69535,-16.19376 -26.61077,-15.34225 -7.65454,0.65736 -15.02653,7.20804 -16.70331,14.84243 -2.25762,10.27881 -1.27667,11.63453 34.4714,47.64161 18.46089,18.59465 35.36525,34.62116 37.56525,35.61448 5.19353,2.34491 10.37357,2.36272 15.70949,0.054 z"
       id="path1580" />
  </g>
</svg>
