<?xml version="1.0" encoding="UTF-8" standalone="no"?>
<!-- Created with Inkscape (http://www.inkscape.org/) -->

<svg
   version="1.1"
   id="svg2"
   width="546.1333"
   height="546.1333"
   viewBox="0 0 546.1333 546.1333"
   sodipodi:docname="cart.png"
   xmlns:inkscape="http://www.inkscape.org/namespaces/inkscape"
   xmlns:sodipodi="http://sodipodi.sourceforge.net/DTD/sodipodi-0.dtd"
   xmlns="http://www.w3.org/2000/svg"
   xmlns:svg="http://www.w3.org/2000/svg">
  <defs
     id="defs6" />
  <sodipodi:namedview
     id="namedview4"
     pagecolor="#ffffff"
     bordercolor="#000000"
     borderopacity="0.25"
     inkscape:showpageshadow="2"
     inkscape:pageopacity="0.0"
     inkscape:pagecheckerboard="0"
     inkscape:deskcolor="#d1d1d1"
     showgrid="false" />
  <g
     inkscape:groupmode="layer"
     inkscape:label="Image"
     id="g8">
    <path
       style="fill:#ffffff;stroke-width:1.06667"
       d="m 151.34537,544.55106 c -18.25167,-4.41777 -34.30434,-19.90017 -39.63094,-38.22305 -2.5331,-8.71356 -2.28755,-22.47741 0.55329,-31.01416 5.80041,-17.4302 20.80765,-31.78209 37.88439,-36.23003 24.84737,-6.47191 50.69825,5.30496 62.31471,28.38867 8.03537,15.96751 8.19173,31.96608 0.46646,47.72505 -11.23789,22.92447 -37.14189,35.27061 -61.58791,29.35352 z m 273.06665,0 c -18.25167,-4.41777 -34.30434,-19.90017 -39.63094,-38.22305 -2.5331,-8.71356 -2.28755,-22.47741 0.55329,-31.01416 5.80041,-17.4302 20.80765,-31.78209 37.88439,-36.23003 24.84737,-6.47191 50.69825,5.30496 62.31471,28.38867 8.03537,15.96751 8.19173,31.96608 0.46646,47.72505 -11.23789,22.92447 -37.14189,35.27061 -61.58791,29.35352 z M 151.34537,408.01773 c -18.23942,-4.4148 -34.30459,-19.90104 -39.62276,-38.19488 -2.48677,-8.5542 -2.23967,-20.95132 0.64287,-32.25249 2.1189,-8.30727 4.56796,-13.12113 21.02786,-41.33214 10.24631,-17.5614 18.80185,-32.69446 19.0123,-33.62903 0.21046,-0.93458 -21.60679,-48.01922 -48.4828,-104.63255 L 55.057385,55.043307 27.663215,54.758633 0.26903492,54.473958 V 27.291968 0.1099772 l 45.06666008,9.48e-4 45.06667,9.49e-4 12.186125,27.1990498 12.18614,27.19905 h 202.96135 c 142.68973,0 204.57435,0.345926 208.39304,1.164889 12.10627,2.596331 19.72665,12.649298 19.73521,26.035109 0.004,6.68333 -0.352,7.97024 -3.39592,12.266666 -1.87036,2.64 -25.68924,45.120002 -52.93082,94.400002 -51.68586,93.49967 -54.18761,97.52763 -64.73515,104.22752 -2.64,1.67695 -7.92,4.10402 -11.73334,5.39349 -6.92978,2.3433 -6.9877,2.34467 -113.10653,2.67603 l -106.17319,0.33153 -11.96013,22.68876 c -6.57807,12.47882 -11.96013,23.903 -11.96013,25.38705 0,1.48406 0.87779,3.49269 1.95066,4.46362 1.79675,1.62604 14.50441,1.76532 161.06665,1.76532 h 159.116 v 27.2 27.19999 l -167.19999,-0.0888 c -140.55477,-0.0747 -168.19711,-0.33027 -173.45697,-1.60341 z"
       id="path293" />
  </g>
</svg>
