<?xml version="1.0" encoding="UTF-8" standalone="no"?>
<!-- Created with Inkscape (http://www.inkscape.org/) -->

<svg
   version="1.1"
   id="svg363"
   width="491.51999"
   height="491.51999"
   viewBox="0 0 491.51999 491.51999"
   sodipodi:docname="home.png"
   xmlns:inkscape="http://www.inkscape.org/namespaces/inkscape"
   xmlns:sodipodi="http://sodipodi.sourceforge.net/DTD/sodipodi-0.dtd"
   xmlns="http://www.w3.org/2000/svg"
   xmlns:svg="http://www.w3.org/2000/svg">
  <defs
     id="defs367" />
  <sodipodi:namedview
     id="namedview365"
     pagecolor="#ffffff"
     bordercolor="#000000"
     borderopacity="0.25"
     inkscape:showpageshadow="2"
     inkscape:pageopacity="0.0"
     inkscape:pagecheckerboard="0"
     inkscape:deskcolor="#d1d1d1"
     showgrid="false" />
  <g
     inkscape:groupmode="layer"
     inkscape:label="Image"
     id="g369">
    <path
       style="fill:#ffffff;stroke-width:0.96"
       d="m 84.581545,440.12815 c -5.27937,-1.1789 -12.03539,-7.64596 -13.50076,-12.9233 -0.68824,-2.47863 -1.02838,-28.38892 -1.03197,-78.61176 l -0.005,-74.91452 87.305895,-71.96548 c 48.01824,-39.58101 87.78659,-71.96547 88.3741,-71.96547 0.58752,0 40.35587,32.38446 88.37411,71.96547 l 87.30589,71.96548 -0.006,74.91452 c -0.004,50.22284 -0.34372,76.13313 -1.03197,78.61176 -1.58264,5.69966 -8.14304,11.68779 -14.23649,12.9946 -3.34525,0.71751 -24.03107,1.06816 -63.01303,1.06816 h -58.03275 v -58.56 -58.56 h -39.36 -39.3597 v 58.56 58.56 l -58.8,-0.10281 c -34.17918,-0.0597 -60.551065,-0.49383 -62.981925,-1.03665 z M 24.644845,279.31843 C 21.971335,278.6239 1.0343951,253.08851 0.39098508,249.73762 c -0.30519,-1.58949 -0.11881,-4.03698 0.41418,-5.43887 C 2.0429151,241.04323 221.58624,57.882222 228.70341,54.167393 c 9.41302,-4.91316 22.92453,-5.233629 32.98726,-0.782401 2.18832,0.968 21.41493,16.335908 42.72578,34.150907 l 38.74701,32.390911 0.25319,-31.383496 c 0.28252,-35.020241 0.31075,-35.173887 6.81278,-37.093857 2.27522,-0.671847 14.28657,-0.92537 34.43357,-0.726789 l 30.93955,0.304958 2.66045,2.661443 2.66046,2.661444 0.25986,64.313547 0.25986,64.31355 34.1294,28.42466 c 20.8755,17.38618 34.50003,29.39954 35.08382,30.93503 1.80204,4.73972 0.1293,7.9504 -11.1724,21.44461 -9.25958,11.05591 -11.54157,13.25269 -14.30533,13.77118 -1.80855,0.33929 -4.19929,0.32774 -5.31274,-0.0256 -1.11345,-0.3534 -49.61798,-40.35443 -107.78784,-88.89118 -58.16986,-48.5368 -106.02944,-88.24868 -106.35463,-88.24868 -0.32518,0 -48.14541,39.67904 -106.26717,88.17567 -58.121775,48.49662 -106.408075,88.45662 -107.302905,88.8 -1.76774,0.67833 -4.79424,0.66026 -7.50854,-0.0448 z"
       id="path490" />
  </g>
</svg>
