<?xml version="1.0" encoding="UTF-8" standalone="no"?>
<!-- Created with Inkscape (http://www.inkscape.org/) -->

<svg
   version="1.1"
   id="svg2"
   width="512"
   height="512"
   viewBox="0 0 512 512"
   xmlns="http://www.w3.org/2000/svg"
   xmlns:svg="http://www.w3.org/2000/svg">
  <defs
     id="defs6" />
  <g
     id="g8">
    <path
       style="fill:#000000"
       d="m 238.52338,511.49008 c -38.02447,-3.77137 -63.33959,-10.66682 -91.7061,-24.9793 -19.5044,-9.84106 -32.44468,-19.07909 -48.141069,-34.36775 -27.13266,-26.42788 -41.668,-55.54741 -44.64161,-89.43326 -1.65106,-18.8148 1.51647,-31.16096 14.43224,-56.25297 18.4189,-35.78316 60.298889,-91.36614 109.156799,-144.87257 5.71986,-6.26407 10.39974,-11.64062 10.39974,-11.94791 0,-0.30728 -4.77,-0.55869 -10.6,-0.55869 h -10.6 l -3.52792,-3.52792 c -3.18936,-3.18936 -3.47484,-3.92376 -2.97469,-7.65259 0.34497,-2.57195 1.53061,-5.10244 3.14957,-6.72207 2.33113,-2.33209 3.48796,-2.63104 11.3247,-2.92653 l 8.72834,-0.32911 -20.52432,-20.67089 C 141.18769,85.281394 132.70461,75.242594 124.31644,61.471885 117.22411,49.828532 114.76499,43.113698 114.25261,33.991812 c -0.35215,-6.269481 -0.0373,-8.489482 1.8142,-12.793502 2.70519,-6.288387 8.38152,-11.4197753 14.53987,-13.1440063 13.59305,-3.8058201 39.52731,5.1684713 69.84082,24.1677213 l 9.92411,6.220026 2.57589,-3.40867 C 231.25353,10.808983 246.83395,-1.1500167 258.1164,0.36327753 269.46065,1.88486 280.45145,11.274913 299.8105,35.984876 l 1.88597,2.40725 9.91345,-6.245904 c 13.92066,-8.770614 36.29709,-19.554201 46.77533,-22.541834 19.2332,-5.4839165 31.93283,-1.5674478 37.5947,11.593922 1.85154,4.30402 2.16635,6.524021 1.8142,12.793502 -0.51238,9.121886 -2.9715,15.83672 -10.06383,27.480073 -8.38817,13.770709 -16.87125,23.809509 -38.68262,45.776635 l -20.52432,20.67089 8.72834,0.32911 c 7.83674,0.29549 8.99357,0.59444 11.3247,2.92653 1.61896,1.61963 2.8046,4.15012 3.14957,6.72207 0.50015,3.72883 0.21467,4.46323 -2.97469,7.65259 l -3.52792,3.52792 h -10.6 c -5.83,0 -10.6,0.23703 -10.6,0.52672 0,0.2897 5.57924,6.7022 12.39831,14.25 64.34099,71.2169 108.57614,134.55862 119.22581,170.72328 7.44876,25.29485 -0.76599,62.56833 -20.16581,91.5 -6.77291,10.1007 -8.96261,12.72652 -20.31359,24.35943 -30.07487,30.82184 -74.99023,52.21807 -124.14472,59.13852 -10.97953,1.54581 -44.05602,2.752 -52.5,1.9145 z m 46.28104,-22.4653 c 49.19511,-6.52677 94.3013,-28.4617 120.83067,-58.75938 19.50595,-22.27665 29.85465,-46.17941 31.08545,-71.79917 0.51271,-10.67238 0.31829,-12.98927 -1.63634,-19.5 -10.14458,-33.79076 -61.36556,-103.8926 -129.79437,-177.6386 l -10.43886,-11.25 h -38.82759 -38.82759 l -10.46756,11.25 C 139.43104,233.65522 87.501121,304.61939 77.126681,338.43297 c -3.94609,12.86155 -2.15944,33.82285 4.35902,51.1408 21.029959,55.87145 82.773489,94.7966 160.037679,100.89301 7.66234,0.60458 34.62645,-0.29378 43.28104,-1.442 z m -34.0059,-42.50595 c -3.88138,-2.10635 -5.08982,-4.92243 -5.7207,-13.33118 l -0.55444,-7.38999 -5.5,-1.37687 c -19.50562,-4.88302 -34.64689,-20.20084 -35.7923,-36.20963 -0.47621,-6.65567 1.68745,-10.28376 7.22218,-12.11039 6.71056,-2.21468 12.35727,2.24242 13.9398,11.00305 1.13991,6.31038 9.43149,13.72125 18.38032,16.42802 l 2.25,0.68057 -0.001,-21.81739 -0.001,-21.81739 -6.24862,-1.8343 c -14.80682,-4.34658 -27.38388,-13.25909 -32.56117,-23.07393 -2.3958,-4.54181 -2.68598,-6.17187 -2.68667,-15.09177 -6.9e-4,-8.9895 0.28956,-10.59129 2.87241,-15.85144 5.44218,-11.08341 19.11166,-21.51659 32.75057,-24.99676 l 5.37625,-1.37183 0.55444,-7.38999 c 0.63997,-8.5298 1.85579,-11.27508 5.92554,-13.37963 3.69223,-1.90932 6.34781,-1.90932 10.04004,0 4.01753,2.07755 5.14914,4.64666 5.86471,13.31479 l 0.61527,7.45313 5.5,1.37772 c 19.50859,4.88677 34.64691,20.20196 35.7923,36.21048 0.47621,6.65567 -1.68745,10.28376 -7.22218,12.11039 -6.71056,2.21468 -12.35727,-2.24242 -13.9398,-11.00305 -1.13991,-6.31038 -9.43149,-13.72125 -18.38032,-16.42802 l -2.25,-0.68057 10e-4,21.81739 10e-4,21.81739 6.24862,1.82789 c 15.05044,4.40267 27.28233,13.07299 32.56117,23.08034 2.39586,4.54192 2.68596,6.17165 2.68647,15.09177 5.1e-4,8.98389 -0.29087,10.59407 -2.86754,15.84656 -5.45105,11.11186 -18.1295,20.8596 -32.13149,24.70408 l -6,1.6474 -0.61527,7.46498 c -0.71538,8.67957 -1.84586,11.2484 -5.86471,13.32663 -3.6322,1.87828 -6.7214,1.86367 -10.24488,-0.0485 z m 23.72486,-45.18594 c 11.12495,-5.53047 16.15503,-15.22033 12.03592,-23.1858 -1.92855,-3.72939 -6.98242,-7.90328 -12.36131,-10.20894 -7.53202,-3.2286 -7.17461,-4.08576 -7.17461,17.20687 v 19.06739 l 2.25,-0.69408 c 1.2375,-0.38174 3.6,-1.36519 5.25,-2.18544 z m -29.5,-82.32265 v -19.06739 l -2.25,0.69408 c -7.30432,2.25321 -14.14836,7.34106 -16.75923,12.45879 -4.59213,9.00132 -0.84751,16.90544 10.68619,22.55633 8.71018,4.26753 8.32304,5.04161 8.32304,-16.64181 z m 60.37028,-199.60565 c 5.57135,-4.77017 18.92983,-17.48267 29.68552,-28.250005 28.02682,-28.057137 41.05093,-46.196897 41.32362,-57.554831 0.11531,-4.802616 -0.003,-5.036285 -2.70682,-5.346019 -9.09808,-1.042225 -40.67245,14.091567 -65.07244,31.189632 -4.64027,3.251621 -6.79576,4.134259 -10.09631,4.134259 -2.30805,0 -4.92173,-0.60192 -5.80817,-1.337599 -0.88644,-0.735679 -4.6681,-5.660445 -8.40369,-10.943924 -7.48366,-10.584596 -22.1234,-26.562817 -26.33147,-28.738895 -2.48684,-1.285991 -2.98607,-1.171041 -6.66533,1.534721 -5.06373,3.723912 -15.41584,15.701131 -23.82845,27.569138 -7.70528,10.870155 -8.20103,11.336904 -12.84115,12.089891 -3.1882,0.517375 -4.84093,-0.260596 -16.10245,-7.579727 -23.258,-15.115926 -42.63222,-24.753815 -54.95731,-27.33903 -2.87689,-0.603433 -5.98111,-0.809195 -6.89827,-0.457248 -4.1931,1.609045 -0.38909,13.908203 8.17377,26.42744 10.27305,15.019628 37.73649,43.744307 61.65867,64.490327 l 10,8.67229 39.37028,0.0563 39.37028,0.0563 10.12972,-8.67304 z"
       id="path293" />
  </g>
</svg>
