<?xml version="1.0" encoding="UTF-8" standalone="no"?>
<!-- Created with Inkscape (http://www.inkscape.org/) -->

<svg
   version="1.1"
   id="svg891"
   width="980"
   height="955"
   viewBox="0 0 980 955"
   sodipodi:docname="sell-icon.png"
   xmlns:inkscape="http://www.inkscape.org/namespaces/inkscape"
   xmlns:sodipodi="http://sodipodi.sourceforge.net/DTD/sodipodi-0.dtd"
   xmlns="http://www.w3.org/2000/svg"
   xmlns:svg="http://www.w3.org/2000/svg">
  <defs
     id="defs895" />
  <sodipodi:namedview
     id="namedview893"
     pagecolor="#ffffff"
     bordercolor="#000000"
     borderopacity="0.25"
     inkscape:showpageshadow="2"
     inkscape:pageopacity="0.0"
     inkscape:pagecheckerboard="0"
     inkscape:deskcolor="#d1d1d1"
     showgrid="false" />
  <g
     inkscape:groupmode="layer"
     inkscape:label="Image"
     id="g897">
    <path
       style="fill:#000000"
       d="m 374.32499,953.16503 c -34.59287,-6.71937 -63.50821,-31.49048 -73.94119,-63.34371 l -1.71954,-5.25 H 293.344 c -14.0617,0 -41.59678,-7.00073 -56.01901,-14.2427 -55.83678,-28.03787 -77.20356,-89.53316 -49.30278,-141.89731 7.52686,-14.12638 19.0964,-27.01939 33.30278,-37.11235 11.27031,-8.00702 31.67107,-16.73771 46.31947,-19.82283 3.21684,-0.6775 5.16074,-1.57578 4.91789,-2.27257 -0.22088,-0.63373 -34.78648,-111.51474 -76.81246,-246.40224 l -76.41088,-245.25 H 71.263508 c -53.63701,0 -54.70573,-0.11302 -62.2666897,-6.58492 -6.43982,-5.51225 -8.62547004,-10.43192 -8.62547004,-19.41508 0,-8.98316 2.18565004,-13.90283 8.62547004,-19.41508 7.7081697,-6.5979 7.5645597,-6.58492 72.8281697,-6.58492 67.201992,0 65.788402,-0.1493 73.923652,7.80742 2.82992,2.7678 5.46174,6.53836 6.41634,9.19258 0.89015,2.475 37.42047,119.475 81.1785,260 43.75802,140.525 80.25353,257.6375 81.10114,260.25 l 1.5411,4.75 H 573.4268 820.86787 l 0.94348,-2.25 c 0.51892,-1.2375 24.60834,-92.925 53.53205,-203.75 28.9237,-110.825 53.26486,-203.60501 54.09146,-206.1778 6.2709,-19.51823 30.81041,-24.83188 43.92439,-9.51114 4.24858,4.96351 6.92868,13.3125 6.12831,19.09081 -0.3122,2.25397 -26.04039,101.52313 -57.17376,220.59813 -39.64974,151.64736 -57.3441,217.76294 -59.06976,220.71611 -2.60427,4.45678 -6.96135,8.281 -11.92348,10.46528 -2.44661,1.07696 -54.21591,1.41637 -282.49557,1.85205 -263.7899,0.50346 -279.9148,0.63377 -286.87982,2.31833 -18.16893,4.39434 -30.17301,10.49404 -39.73764,20.19209 -11.43821,11.59778 -16.8356,27.19954 -14.48638,41.87449 4.1187,25.7284 27.8668,45.03442 60.96776,49.56374 9.19709,1.25846 11.12895,0.96381 11.15046,-1.70071 0.025,-3.09819 9.49679,-21.52835 14.37229,-27.96553 6.68587,-8.82743 18.03293,-19.03054 27.46437,-24.69556 9.35637,-5.61992 24.30816,-11.02543 35.14896,-12.70738 9.29771,-1.44253 29.25967,-0.59824 37.5,1.58605 31.8685,8.44752 57.46997,31.58826 67.48774,61.00104 l 1.70296,5 69.49434,0.25675 69.49434,0.25675 1.18443,-3.95329 c 2.23709,-7.46674 10.05509,-21.56866 16.30442,-29.40955 12.02926,-15.09281 31.39849,-27.6128 50.83177,-32.85692 11.92893,-3.21905 36.52139,-3.21672 48.5,0.005 11.13446,2.99429 28.51091,11.97044 37.29642,19.2662 12.68188,10.53142 25.13419,28.69398 29.2653,42.68547 l 1.25486,4.25 h 46.66021 c 51.42797,0 53.17843,0.17626 60.30764,6.07246 15.82376,13.08702 10.31354,38.51493 -9.62958,44.4374 -4.12906,1.22579 -13.19405,1.48973 -51.17806,1.48973 h -46.16021 l -1.25807,4.25 c -0.69194,2.3375 -3.2277,8.07902 -5.63502,12.75893 -22.11811,42.99831 -72.73488,62.59058 -118.71758,45.95209 -24.89687,-9.00874 -47.26971,-31.08882 -56.45652,-55.71775 l -2.70682,-7.25673 -69.42594,0.25673 -69.42593,0.25673 -1.70058,5 c -5.5832,16.41562 -18.31413,33.62024 -32.85416,44.39921 -8.53084,6.32417 -23.30058,13.41285 -33.63596,16.14346 -10.29108,2.71889 -30.9618,3.50087 -41,1.55104 z m 29,-51.78665 c 10.73935,-2.6589 22.71137,-12.31439 27.76144,-22.38973 13.1591,-26.25361 -3.08921,-57.35328 -32.64082,-62.47533 -30.75258,-5.33021 -57.88993,23.56829 -50.12538,53.3784 2.20846,8.47885 5.07618,13.41102 11.57796,19.9128 11.52681,11.52681 26.98104,15.64558 43.4268,11.57386 z m 326.5,-0.93366 c 11.34866,-3.90474 20.46271,-12.21109 25.72286,-23.44327 2.53142,-5.40543 2.77714,-6.94765 2.77714,-17.43013 0,-10.86984 -0.17582,-11.87118 -3.20861,-18.27383 -8.29388,-17.50954 -28.08454,-27.98942 -46.87844,-24.82384 -14.85342,2.50186 -27.56596,11.86487 -33.70434,24.82384 -3.03384,6.40488 -3.20861,7.40135 -3.20861,18.29486 0,11.0027 0.14781,11.82127 3.28543,18.19467 10.04682,20.40801 33.62839,30.08488 55.21457,22.6577 z M 538.74524,426.24755 c -2.42737,-1.28362 -5.29535,-3.85739 -6.40728,-5.75 -1.98874,-3.38498 -2.01899,-5.34495 -2.51297,-162.79832 l -0.5,-159.372086 -49.7342,49.122086 c -46.8712,46.29433 -49.93888,49.12209 -53.28984,49.12209 -5.52535,0 -10.10706,-2.99488 -21.67348,-14.16709 -10.76159,-10.3948 -14.73295,-16.29048 -14.78052,-21.9424 -0.018,-2.14165 13.73782,-16.22455 76.72804,-78.552306 79.99919,-79.1578578 82.42512,-81.33819878 90.49985,-81.33819878 2.444,0 13.98423,11.00815478 79.80366,76.12421878 72.05207,71.282086 76.94649,76.341466 76.94649,79.539826 0,5.54851 -3.18961,10.2156 -14.66146,21.45285 -10.95081,10.72689 -14.24352,13.08364 -20.01547,14.32607 -4.11828,0.88647 -2.28376,2.53848 -54.32307,-48.91853 l -42.5,-42.02444 -0.5,158.67682 c -0.49852,158.20752 -0.50609,158.68516 -2.55854,161.5 -1.1322,1.55275 -4.04005,3.83568 -6.46189,5.07318 -3.87918,1.98216 -5.9069,2.25 -17.03418,2.25 -11.29009,0 -13.09727,-0.24666 -17.02514,-2.32377 z"
       id="path1018" />
  </g>
</svg>
