<?xml version="1.0" encoding="UTF-8" standalone="no"?>
<!-- Created with Inkscape (http://www.inkscape.org/) -->

<svg
   version="1.1"
   id="svg513"
   width="560"
   height="560"
   viewBox="0 0 560 560"
   sodipodi:docname="shop.png"
   inkscape:export-filename="shop.svg"
   inkscape:export-xdpi="96"
   inkscape:export-ydpi="96"
   xmlns:inkscape="http://www.inkscape.org/namespaces/inkscape"
   xmlns:sodipodi="http://sodipodi.sourceforge.net/DTD/sodipodi-0.dtd"
   xmlns="http://www.w3.org/2000/svg"
   xmlns:svg="http://www.w3.org/2000/svg">
  <defs
     id="defs517" />
  <sodipodi:namedview
     id="namedview515"
     pagecolor="#ffffff"
     bordercolor="#000000"
     borderopacity="0.25"
     inkscape:showpageshadow="2"
     inkscape:pageopacity="0.0"
     inkscape:pagecheckerboard="0"
     inkscape:deskcolor="#d1d1d1"
     showgrid="false" />
  <g
     inkscape:groupmode="layer"
     inkscape:label="Image"
     id="g519">
    <path
       style="fill:#ffffff;stroke-width:1.28061"
       d="M 52.097552,395.74474 V 280.98148 l 2.881357,0.78119 c 14.958462,4.0556 36.643215,4.11174 51.544231,0.13344 10.52594,-2.81026 26.74878,-10.98525 35.14385,-17.70969 l 6.9706,-5.58346 6.87465,5.59947 c 15.40921,12.55098 34.79088,19.58146 56.6606,20.55301 12.20463,0.5422 16.70088,0.18427 26.25234,-2.08981 13.54672,-3.22531 29.21245,-10.65088 38.98567,-18.47921 l 6.97059,-5.58346 6.87465,5.59947 c 8.40741,6.84792 20.95817,13.29037 33.66491,17.28055 12.41245,3.89778 39.43487,4.29588 52.18905,0.76887 11.86159,-3.28019 25.38496,-9.93231 34.92755,-17.18086 l 8.41472,-6.39178 4.58347,3.93702 c 10.7269,9.214 27.84881,17.43144 43.01946,20.6467 10.82542,2.29429 28.14419,2.33395 37.69568,0.0863 l 7.36347,-1.73279 V 396.06225 510.50804 H 282.60597 52.097552 V 395.74478 Z m 374.907008,13.91583 0.3308,-72.03388 h -43.55113 -43.55116 v 71.5003 c 0,39.32516 0.39183,71.89213 0.87072,72.37101 0.47889,0.4789 19.92803,0.719 43.22033,0.53359 l 42.34961,-0.33713 z m -172.87497,-28.81355 0.33718,-43.22033 h -72.37106 -72.37107 v 43.55115 43.55113 l 72.03389,-0.3308 72.03388,-0.33082 z M 62.982656,251.79815 C 41.289801,247.44397 21.099388,232.40858 12.531979,214.2286 8.9069001,206.5362 5.9958611,195.69144 5.9958611,189.87903 c 0,-1.61819 18.3039059,-31.90791 41.1700239,-68.12905 C 69.809384,85.881451 89.258539,54.953379 90.386204,53.020912 l 2.05031,-3.513551 178.889506,-0.0077 178.88952,-0.0077 51.53153,68.160559 c 28.34233,37.48831 51.78593,69.49146 52.09689,71.11809 0.92047,4.81515 -2.25053,18.28761 -6.32548,26.87469 -18.20907,38.37175 -72.66692,48.25323 -103.55565,18.79036 -12.41633,-11.84316 -19.20314,-24.79664 -21.31027,-40.67341 l -0.87667,-6.60553 -2.93075,11.94589 c -3.48936,14.22285 -7.33066,21.21708 -17.47032,31.80986 -15.8853,16.5952 -40.1996,24.16337 -62.67947,19.50989 -16.45242,-3.40578 -34.52086,-15.67451 -43.35201,-29.43667 -5.22186,-8.1384 -10.17617,-21.62309 -10.17617,-27.69849 0,-6.4438 -0.86877,-4.94972 -3.81087,6.55376 -3.44736,13.47905 -8.063,21.61237 -17.95764,31.6436 -38.19285,38.72001 -104.84844,19.01184 -115.59859,-34.17924 l -1.77568,-8.78594 -1.60074,8.28248 c -7.21979,37.35628 -44.36284,62.43859 -81.440994,54.99626 z"
       id="path640" />
  </g>
</svg>
